<svg width="16" height="16" viewBox="0 0 16 16" fill="none" xmlns="http://www.w3.org/2000/svg">
<path d="M8.11964 7.38218L5.61164 4.87455C5.55923 4.81866 5.49612 4.77389 5.42607 4.74287C5.35602 4.71186 5.28044 4.69525 5.20384 4.69402C5.12724 4.69279 5.05117 4.70697 4.98016 4.73572C4.90915 4.76447 4.84464 4.8072 4.79046 4.86137C4.73629 4.91555 4.69356 4.98006 4.66481 5.05107C4.63606 5.12208 4.62188 5.19815 4.62311 5.27475C4.62434 5.35135 4.64095 5.42692 4.67196 5.49698C4.70298 5.56703 4.74775 5.63014 4.80364 5.68255L7.31127 8.19055L4.80364 10.6985C4.74775 10.751 4.70298 10.8141 4.67196 10.8841C4.64095 10.9542 4.62434 11.0297 4.62311 11.1063C4.62188 11.1829 4.63606 11.259 4.66481 11.33C4.69356 11.401 4.73629 11.4655 4.79046 11.5197C4.84464 11.5739 4.90915 11.6166 4.98016 11.6454C5.05117 11.6741 5.12724 11.6883 5.20384 11.6871C5.28044 11.6858 5.35602 11.6692 5.42607 11.6382C5.49612 11.6072 5.55923 11.5624 5.61164 11.5065L8.11964 8.99855L10.6273 11.5065C10.6798 11.5617 10.7429 11.6059 10.8128 11.6363C10.8827 11.6668 10.958 11.6829 11.0342 11.6839C11.1104 11.6848 11.186 11.6705 11.2566 11.6418C11.3272 11.613 11.3914 11.5705 11.4453 11.5166C11.4992 11.4627 11.5418 11.3986 11.5706 11.328C11.5993 11.2574 11.6137 11.1817 11.6128 11.1055C11.6119 11.0293 11.5957 10.954 11.5653 10.8841C11.5349 10.8142 11.4908 10.7511 11.4356 10.6985L8.92764 8.19055L11.4356 5.68255C11.4908 5.62995 11.5349 5.56684 11.5653 5.49695C11.5957 5.42706 11.6119 5.35179 11.6128 5.27557C11.6137 5.19935 11.5993 5.12371 11.5706 5.05312C11.5418 4.98253 11.4992 4.91841 11.4453 4.86452C11.3914 4.81063 11.3272 4.76807 11.2566 4.73934C11.186 4.71061 11.1104 4.69629 11.0342 4.69722C10.958 4.69816 10.8827 4.71433 10.8128 4.74478C10.7429 4.77523 10.6798 4.81935 10.6273 4.87455L8.12 7.38182L8.11964 7.38218ZM8 16C3.58182 16 0 12.4182 0 8C0 3.58182 3.58182 0 8 0C12.4182 0 16 3.58182 16 8C16 12.4182 12.4182 16 8 16Z" fill="#E3E3E3"/>
</svg>
